<?xml version="1.0" encoding="UTF-8" standalone="no"?><!-- Generated by graphviz version 2.40.1 (20161225.0304)
 --><!-- Title: ndiag Pages: 1 --><svg width="138pt" height="142pt" viewBox="0.00 0.00 138.00 141.60" xmlns="http://www.w3.org/2000/svg" xmlns:xlink="http://www.w3.org/1999/xlink"><g id="graph0" class="graph" transform="scale(1 1) rotate(0) translate(4 137.6)"><title>ndiag</title><polygon fill="#ffffff" stroke="transparent" points="-4,4 -4,-137.6 134,-137.6 134,4 -4,4"></polygon><g id="clust1" class="cluster"><title>cluster_role:web</title><path fill="#ffffff" stroke="#1f91be" stroke-width="2" d="M20,-8C20,-8 110,-8 110,-8 116,-8 122,-14 122,-20 122,-20 122,-113.6 122,-113.6 122,-119.6 116,-125.6 110,-125.6 110,-125.6 20,-125.6 20,-125.6 14,-125.6 8,-119.6 8,-113.6 8,-113.6 8,-20 8,-20 8,-14 14,-8 20,-8"></path><text text-anchor="middle" x="65" y="-109" font-family="Arial" font-size="14.00" fill="#333333">role:web</text></g><g id="clust2" class="cluster"><title>cluster_instance</title><polygon fill="#ffffff" stroke="#333333" stroke-width="2" points="16,-16 16,-92.8 114,-92.8 114,-16 16,-16"></polygon><text text-anchor="middle" x="65" y="-76.2" font-family="Arial" font-size="14.00" fill="#333333">instance</text></g><!-- instance:http&#45;server --><g id="node1" class="node"><title>instance:http-server</title><path fill="#ffffff" stroke="#4b75b9" stroke-width="3" d="M94.3935,-60C94.3935,-60 35.6065,-60 35.6065,-60 29.6065,-60 23.6065,-54 23.6065,-48 23.6065,-48 23.6065,-36 23.6065,-36 23.6065,-30 29.6065,-24 35.6065,-24 35.6065,-24 94.3935,-24 94.3935,-24 100.3935,-24 106.3935,-30 106.3935,-36 106.3935,-36 106.3935,-48 106.3935,-48 106.3935,-54 100.3935,-60 94.3935,-60"></path><text text-anchor="middle" x="65" y="-37.8" font-family="Arial" font-size="14.00" fill="#333333">http-server</text></g></g></svg>