<?xml version="1.0" encoding="UTF-8" standalone="no"?><!-- Generated by graphviz version 2.40.1 (20161225.0304)
 --><!-- Title: ndiag Pages: 1 --><svg width="116pt" height="101pt" viewBox="0.00 0.00 116.00 100.80" xmlns="http://www.w3.org/2000/svg" xmlns:xlink="http://www.w3.org/1999/xlink"><g id="graph0" class="graph" transform="scale(1 1) rotate(0) translate(4 96.8)"><title>ndiag</title><polygon fill="#ffffff" stroke="transparent" points="-4,4 -4,-96.8 112,-96.8 112,4 -4,4"></polygon><g id="clust1" class="cluster"><title>cluster_vip_group:lb</title><path fill="#ffffff" stroke="#38a0ce" stroke-width="2" d="M20,-8C20,-8 88,-8 88,-8 94,-8 100,-14 100,-20 100,-20 100,-72.8 100,-72.8 100,-78.8 94,-84.8 88,-84.8 88,-84.8 20,-84.8 20,-84.8 14,-84.8 8,-78.8 8,-72.8 8,-72.8 8,-20 8,-20 8,-14 14,-8 20,-8"></path><text text-anchor="middle" x="54" y="-68.2" font-family="Arial" font-size="14.00" fill="#333333">vip_group:lb</text></g><!-- vip_group:lb:vip --><g id="node1" class="node"><title>vip_group:lb:vip</title><path fill="#ffffff" stroke="#4b75b9" stroke-width="3" d="M69,-52C69,-52 39,-52 39,-52 33,-52 27,-46 27,-40 27,-40 27,-28 27,-28 27,-22 33,-16 39,-16 39,-16 69,-16 69,-16 75,-16 81,-22 81,-28 81,-28 81,-40 81,-40 81,-46 75,-52 69,-52"></path><text text-anchor="middle" x="54" y="-29.8" font-family="Arial" font-size="14.00" fill="#333333">vip</text></g></g></svg>