<?xml version="1.0" encoding="UTF-8" standalone="no"?><!-- Generated by graphviz version 2.40.1 (20161225.0304)
 --><!-- Title: ndiag Pages: 1 --><svg width="122pt" height="101pt" viewBox="0.00 0.00 122.00 100.80" xmlns="http://www.w3.org/2000/svg" xmlns:xlink="http://www.w3.org/1999/xlink"><g id="graph0" class="graph" transform="scale(1 1) rotate(0) translate(4 96.8)"><title>ndiag</title><polygon fill="#ffffff" stroke="transparent" points="-4,4 -4,-96.8 118,-96.8 118,4 -4,4"></polygon><g id="clust1" class="cluster"><title>cluster_instance</title><polygon fill="none" stroke="#000000" stroke-width="2" points="8,-8 8,-84.8 106,-84.8 106,-8 8,-8"></polygon><text text-anchor="middle" x="57" y="-68.2" font-family="Arial" font-size="14.00" fill="#000000">instance</text></g><!-- instance:http&#45;server --><g id="node1" class="node"><title>instance:http-server</title><path fill="#ffffff" stroke="#4b75b9" stroke-width="3" d="M86.3935,-52C86.3935,-52 27.6065,-52 27.6065,-52 21.6065,-52 15.6065,-46 15.6065,-40 15.6065,-40 15.6065,-28 15.6065,-28 15.6065,-22 21.6065,-16 27.6065,-16 27.6065,-16 86.3935,-16 86.3935,-16 92.3935,-16 98.3935,-22 98.3935,-28 98.3935,-28 98.3935,-40 98.3935,-40 98.3935,-46 92.3935,-52 86.3935,-52"></path><text text-anchor="middle" x="57" y="-29.8" font-family="Arial" font-size="14.00" fill="#333333">http-server</text></g></g></svg>