<?xml version="1.0" encoding="UTF-8" standalone="no"?><!-- Generated by graphviz version 2.40.1 (20161225.0304)
 --><!-- Title: ndiag Pages: 1 --><svg width="100pt" height="258pt" viewBox="0.00 0.00 100.00 257.60" xmlns="http://www.w3.org/2000/svg" xmlns:xlink="http://www.w3.org/1999/xlink"><g id="graph0" class="graph" transform="scale(1 1) rotate(0) translate(4 253.6)"><title>ndiag</title><polygon fill="#ffffff" stroke="transparent" points="-4,4 -4,-253.6 96,-253.6 96,4 -4,4"></polygon><g id="clust2" class="cluster"><title>cluster_lb</title><polygon fill="none" stroke="#999999" stroke-width="2" points="8,-164.8 8,-241.6 84,-241.6 84,-164.8 8,-164.8"></polygon><text text-anchor="middle" x="46" y="-225" font-family="Arial" font-size="14.00" fill="#666666">lb</text></g><g id="clust1" class="cluster"><title>cluster_app</title><polygon fill="none" stroke="#000000" stroke-width="2" points="8,-8 8,-156.8 84,-156.8 84,-8 8,-8"></polygon><text text-anchor="middle" x="46" y="-140.2" font-family="Arial" font-size="14.00" fill="#000000">app</text></g><!-- app:nginx --><g id="node1" class="node"><title>app:nginx</title><path fill="#ffffff" stroke="#4b75b9" stroke-width="3" d="M64.3319,-124C64.3319,-124 27.6681,-124 27.6681,-124 21.6681,-124 15.6681,-118 15.6681,-112 15.6681,-112 15.6681,-100 15.6681,-100 15.6681,-94 21.6681,-88 27.6681,-88 27.6681,-88 64.3319,-88 64.3319,-88 70.3319,-88 76.3319,-94 76.3319,-100 76.3319,-100 76.3319,-112 76.3319,-112 76.3319,-118 70.3319,-124 64.3319,-124"></path><text text-anchor="middle" x="46" y="-101.8" font-family="Arial" font-size="14.00" fill="#333333">NGINX</text></g><!-- app:app --><g id="node2" class="node"><title>app:app</title><path fill="#ffffff" stroke="#4b75b9" stroke-width="3" d="M61,-52C61,-52 31,-52 31,-52 25,-52 19,-46 19,-40 19,-40 19,-28 19,-28 19,-22 25,-16 31,-16 31,-16 61,-16 61,-16 67,-16 73,-22 73,-28 73,-28 73,-40 73,-40 73,-46 67,-52 61,-52"></path><text text-anchor="middle" x="46" y="-29.8" font-family="Arial" font-size="14.00" fill="#333333">App</text></g><!-- app:nginx&#45;&gt;app:app --><g id="edge2" class="edge"><title>app:nginx-&gt;app:app</title><path fill="none" stroke="#333333" stroke-width="2" stroke-opacity="0.600000" d="M46,-87.8314C46,-87.8314 46,-62.4133 46,-62.4133"></path><polygon fill="#333333" fill-opacity="0.600000" stroke="#333333" stroke-width="2" stroke-opacity="0.600000" points="49.5001,-62.4132 46,-52.4133 42.5001,-62.4133 49.5001,-62.4132"></polygon></g><!-- lb:nginx --><g id="node3" class="node"><title>lb:nginx</title><path fill="#ffffff" stroke="#4b75b9" stroke-width="3" d="M64.3319,-208.8C64.3319,-208.8 27.6681,-208.8 27.6681,-208.8 21.6681,-208.8 15.6681,-202.8 15.6681,-196.8 15.6681,-196.8 15.6681,-184.8 15.6681,-184.8 15.6681,-178.8 21.6681,-172.8 27.6681,-172.8 27.6681,-172.8 64.3319,-172.8 64.3319,-172.8 70.3319,-172.8 76.3319,-178.8 76.3319,-184.8 76.3319,-184.8 76.3319,-196.8 76.3319,-196.8 76.3319,-202.8 70.3319,-208.8 64.3319,-208.8"></path><text text-anchor="middle" x="46" y="-186.6" font-family="Arial" font-size="14.00" fill="#333333">NGINX</text></g><!-- lb:nginx&#45;&gt;app:nginx --><g id="edge1" class="edge"><title>lb:nginx-&gt;app:nginx</title><path fill="none" stroke="#333333" stroke-width="2" stroke-opacity="0.600000" d="M46,-172.3997C46,-172.3997 46,-134.0731 46,-134.0731"></path><polygon fill="#333333" fill-opacity="0.600000" stroke="#333333" stroke-width="2" stroke-opacity="0.600000" points="49.5001,-134.0731 46,-124.0731 42.5001,-134.0731 49.5001,-134.0731"></polygon></g></g></svg>